<?xml version="1.0" standalone="no"?>
<!DOCTYPE svg PUBLIC "-//W3C//DTD SVG 20010904//EN"
 "http://www.w3.org/TR/2001/REC-SVG-20010904/DTD/svg10.dtd">
<svg version="1.0" xmlns="http://www.w3.org/2000/svg"
 width="105.000000pt" height="105.000000pt" viewBox="0 0 105.000000 105.000000"
 preserveAspectRatio="xMidYMid meet">

<g transform="translate(0.000000,105.000000) scale(0.100000,-0.100000)"
fill="#293042" stroke="none">
<path d="M420 1036 c-125 -32 -229 -100 -301 -196 -215 -287 -90 -693 251
-811 92 -32 238 -32 330 0 156 54 273 170 326 320 34 94 34 258 0 352 -53 151
-172 267 -326 319 -82 28 -206 35 -280 16z m239 -95 c82 -25 138 -60 193 -119
157 -168 157 -426 0 -594 -171 -183 -463 -183 -634 0 -157 168 -157 426 0 594
112 120 287 167 441 119z"/>
<path d="M590 698 c-69 -27 -180 -70 -247 -95 -68 -25 -123 -51 -123 -58 0
-14 29 -28 95 -45 l50 -12 148 92 c81 51 150 90 153 88 2 -3 -49 -53 -115
-111 l-119 -106 -4 -63 c-3 -35 -4 -65 -1 -67 2 -3 21 12 42 33 26 26 44 36
53 30 7 -4 39 -27 71 -51 32 -23 64 -40 72 -37 8 3 17 20 20 37 8 38 36 164
65 296 12 51 19 100 16 107 -9 22 -43 15 -176 -38z"/>
</g>
</svg>
