<svg width="80" height="65" viewBox="0 0 80 65" fill="none" xmlns="http://www.w3.org/2000/svg">
<path fill-rule="evenodd" clip-rule="evenodd" d="M48.7109 40.8805C48.7523 40.97 48.778 41.7038 48.7191 41.8938C48.622 42.2056 48.0853 42.1752 47.8072 42.173C47.4062 42.17 47.0829 42.2101 46.6495 42.2086C46.2587 42.2074 45.9216 42.2447 45.4924 42.2447C44.6976 42.2447 43.9672 42.2816 43.1417 42.2803L41.9853 42.3172C41.5125 42.3514 41.3297 42.7849 40.5401 43.2159C40.2971 43.3484 40.0004 43.4981 39.7379 43.604C38.5701 44.0739 37.3376 44.3796 36.1305 44.7613C35.3827 44.9977 34.4406 45.2189 33.6322 45.225C33.1338 45.2284 31.2059 45.3474 30.8887 45.4452C30.6125 45.5297 30.4191 45.777 30.3319 46.0765L29.7833 47.9005C29.735 48.0657 29.684 48.1495 29.6329 48.3259C29.4838 48.8425 29.0167 49.3276 28.6499 49.7189L27.2753 51.2979C27.206 51.3716 27.2087 51.3854 27.1475 51.4584C27.095 51.5203 27.0578 51.5449 27.0048 51.6038C26.9407 51.6754 26.9417 51.6928 26.8773 51.7643C26.1632 52.5593 25.1394 53.6633 24.5543 54.5195C24.7225 54.5333 24.9578 54.5824 25.1327 54.5915C25.3677 54.604 25.5542 54.6092 25.7499 54.6257C26.5788 54.6935 27.3902 54.6313 28.2222 54.7559C28.6192 54.8154 29.0989 54.7625 29.4932 54.8218C30.0062 54.8989 30.7807 54.8073 31.2664 54.6851C32.1483 54.463 33.1148 54.3521 33.9522 54.0847C35.059 53.7301 36.5515 53.0101 37.6326 52.533L40.7667 51.1214L41.2611 51.074C41.1888 51.2718 40.6798 51.5026 40.5 51.6102C39.5509 52.1787 38.9891 52.5348 38.5005 53.5382C38.1319 54.2931 37.7025 56.0579 37.4932 56.8815C37.3366 57.4971 36.9879 59.6177 36.9191 59.829L36.6323 60.442C35.8947 60.442 35.2071 60.311 34.4827 60.2063C33.2292 60.0259 32.0356 59.8595 30.7896 59.6369C30.2482 59.5405 29.3962 59.2933 28.8575 59.2933C28.5905 59.2933 28.2497 59.9158 27.9089 60.2532C27.2124 60.9418 26.5722 61.4533 25.8155 62.0524C25.6956 62.1473 25.5619 62.2362 25.4494 62.3353C24.909 62.8115 24.3446 64.1325 24.0122 64.785C24.4147 64.8181 24.7676 64.9169 25.1579 64.9757C25.2523 64.9897 25.3915 64.9975 25.5569 65H25.8133C26.4761 64.9914 27.362 64.9201 27.6696 64.8255C27.8997 64.7547 28.1756 64.6513 28.3634 64.5097C28.4587 64.4382 28.4508 64.3962 28.4602 64.2468C28.4939 63.6933 28.5077 63.392 27.9663 63.1212C27.5475 62.9116 27.6409 63.0062 27.339 62.6314C27.6151 62.4994 28.0872 62.4429 28.352 62.3085C28.5214 62.2215 28.53 62.0699 28.583 61.856C28.6321 61.657 28.6759 61.5493 28.7851 61.3749C28.9699 61.3749 29.2961 61.4043 29.3912 61.4916C29.4816 61.5749 29.5445 61.9111 29.5809 62.0571L30.0869 63.0622C30.314 63.0099 30.6853 62.465 30.8366 62.2625C31.06 61.9642 31.1958 61.5267 31.7298 61.6086C32.6637 61.7516 33.6312 61.8548 34.5458 61.9743L40.5019 62.3441C40.2255 60.743 40.2052 60.9667 40.5475 59.2304C40.6062 58.9323 40.6258 58.6605 40.7439 58.385C40.8432 58.1542 41.0035 57.8905 41.1476 57.7087C41.2237 57.6126 41.2982 57.5273 41.375 57.4317C41.4434 57.3454 41.5447 57.2012 41.6217 57.139C41.9598 56.8635 43.7876 56.5942 44.2629 56.5654C45.3836 56.4976 46.6671 56.8102 48.0033 56.617C48.3451 56.5681 48.7099 56.5224 49.0379 56.4959C49.4304 56.4639 49.7422 56.4961 50.089 56.4258C51.8519 56.068 54.028 54.5389 55.1584 53.2027C55.2161 53.1347 55.2402 53.115 55.2924 53.0484C55.3776 52.9398 55.4613 52.8368 55.5455 52.7255C55.867 52.2986 56.2001 51.84 56.4496 51.361C56.5169 51.2308 56.5796 51.1386 56.6544 50.9899C56.7272 50.8462 56.7646 50.7405 56.8352 50.5955L57.3538 48.8128C57.3932 48.5366 57.3043 47.9445 57.2602 47.6491C57.1014 46.5862 57.5834 46.0038 56.7294 45.1613L55.7714 44.1378C55.4395 43.8085 55.0871 43.4639 54.7141 43.1776C54.3431 42.8935 53.9929 42.5696 53.6 42.3089C53.1988 42.0425 52.7807 41.7539 52.322 41.5674C52.0786 41.4691 51.8913 41.3789 51.6167 41.2986C50.9152 41.0931 49.7727 40.8872 49.0364 40.8446C48.8756 40.8446 48.8942 40.8805 48.7109 40.8805ZM36.7407 15.8282C37.1482 16.0221 37.1402 15.7323 37.1385 15.3258V14.2487C36.9822 14.4276 36.8794 15.5414 36.7407 15.8282ZM15.9117 36.4301C16.0323 36.3667 16.5403 36.0192 16.5985 35.9273L16.9601 35.1021C15.9488 35.1021 16.122 34.944 16.0182 35.7103C15.986 35.946 15.9117 36.1831 15.9117 36.4301ZM13.0547 18.0894C13.1003 18.2835 13.3718 18.7391 13.4884 18.9507C13.8332 18.8598 13.9672 18.0903 14.9448 19.0495C15.2276 19.327 14.9839 19.1618 15.369 19.4177L14.7303 17.6826L14.5737 17.4794C14.1794 17.4794 13.9011 17.4782 13.5528 17.6866C13.4166 17.7682 13.1328 17.9741 13.0547 18.0894ZM38.5493 1.07666C38.5493 1.24426 38.5007 1.32094 38.4341 1.42858C38.2189 1.7751 38.1498 2.17371 38.151 2.62C38.1537 3.29583 38.1151 3.88024 38.1151 4.52216C38.1151 5.83597 38.0742 7.03993 38.0799 8.36357L38.0428 9.29572V11.234C38.0435 11.5857 38.0064 11.8051 38.0066 12.1671C38.0071 12.8855 38.0287 13.8808 38.0079 14.5731C38.0022 14.7601 37.9692 14.8174 37.9697 15.0376L38.1151 15.864C38.1151 14.5851 38.1562 13.3677 38.151 12.0592C38.1498 11.7176 38.1877 11.4891 38.1877 11.1266V9.18808C38.1874 8.82584 38.2246 8.60637 38.2236 8.2547C38.2223 7.62089 38.2236 6.98709 38.2236 6.35279C38.2236 5.78755 38.2615 2.91147 38.3056 2.55734C38.4878 1.0855 39.0999 1.49248 38.5852 0.53796L38.2962 0.0356349C37.8741 0.147454 38.5493 0.627661 38.5493 1.07666ZM29.2914 33.6305C29.9274 33.7772 30.509 33.7629 31.282 33.7725C31.6619 33.7772 31.8717 33.8755 32.2073 33.6887C32.2073 33.6887 32.5459 32.9726 32.5459 32.9126C32.5459 32.7411 32.0753 32.7421 31.859 32.7335C31.1817 32.7055 30.2284 32.7258 29.5584 32.818C29.2731 32.8573 29.2914 32.905 29.2914 33.6305ZM37.1749 1.07666C37.1749 1.59668 37.5484 1.60651 37.6098 2.54702C37.6475 3.11496 37.6091 3.76179 37.6091 4.41452C37.6091 5.69097 37.5655 6.81899 37.5729 8.18343C37.5749 8.49136 37.5368 8.73417 37.5368 9.08044C37.5368 11.3016 37.4853 13.5694 37.4642 15.7923H37.6091C37.6091 15.1373 37.6453 14.594 37.6453 13.9258C37.6453 12.3514 37.6874 10.8504 37.6812 9.22396C37.6797 8.88236 37.7173 8.65381 37.7173 8.29058C37.7173 7.65677 37.7173 7.02272 37.7173 6.38818C37.7173 5.70867 37.754 5.1476 37.754 4.48628C37.754 3.47007 37.672 2.34034 38.1035 1.49543C38.394 0.925518 38.2753 0.90045 37.754 0C37.6822 0.0516088 37.1749 0.747098 37.1749 1.07666ZM37.2472 37.7221C37.3166 37.9791 37.8788 38.117 38.0066 38.117C39.6613 38.117 41.2083 38.0096 42.8524 38.0096L44.6607 37.9735C44.9086 37.9745 45.0446 37.9482 45.239 37.9371C45.6375 37.9162 46.0672 37.9742 46.4479 37.917L47.662 37.8658C47.6581 37.6877 47.5872 37.4495 47.4659 37.3773C47.3435 37.3045 47.0508 37.3603 46.8291 37.3623L44.5467 37.5375C44.4286 37.5505 44.309 37.5363 44.1903 37.5424C44.0313 37.5508 44.0393 37.5749 43.8661 37.5798L42.1653 37.6506L38.6575 37.6864C38.4163 37.6864 38.1753 37.6864 37.9333 37.6852C37.674 37.6845 37.5331 37.7221 37.2472 37.7221ZM41.4783 16.3666C41.5915 16.5195 42.0088 16.7596 42.257 16.8139L48.246 16.5871C48.4206 16.5676 48.6735 16.5821 48.8563 16.5826C49.1027 16.5836 49.1867 16.544 49.4334 16.5453C50.0934 16.5477 49.9753 16.5568 50.6274 16.4743C50.618 16.0646 50.4944 15.7716 50.0283 15.8427C49.1931 15.9692 48.2998 15.9815 47.6521 16.0695L44.5893 16.2238C44.3476 16.2231 44.1529 16.2233 43.9635 16.2491L41.4783 16.3666ZM36.3796 28.4981C36.4787 28.432 36.5609 28.3482 36.6375 28.2524C36.9768 27.8297 36.9949 27.8432 37.2836 27.3136L38.8138 24.6329L39.3807 23.0785C39.2158 23.0785 38.5522 23.1497 38.4561 23.2016C38.2867 23.2932 38.1498 23.6557 38.0549 23.844C37.4204 25.103 37.0808 24.97 36.6543 26.6527C36.5468 27.0762 36.3796 28.0644 36.3796 28.4981ZM13.8862 19.4531C13.8862 20.4634 14.5911 22.5142 15.08 23.4731L16.2371 23.1143C16.2371 22.8646 16.1898 22.6845 16.1542 22.4422C16.0677 21.8531 15.8892 21.1495 15.5932 20.6666C15.4916 20.5007 15.4203 20.3582 15.3116 20.1921L14.9799 19.732L14.1396 18.9866C13.9682 18.9217 13.8862 19.3481 13.8862 19.4531ZM15.08 17.3718C15.0849 17.5974 16.3127 21.2731 16.4318 21.6287C16.7238 22.4997 16.5059 22.0615 16.9601 22.9706C17.296 22.9706 17.1367 22.5198 17.1407 22.1097C17.1444 21.7506 16.9091 19.6013 16.8623 19.2275C16.7778 18.558 16.7979 17.3081 16.3575 17.1432C16.1938 17.082 16.0967 17.0987 15.9179 17.1248C15.4049 17.2002 15.3869 17.3005 15.08 17.3718ZM27.6644 34.5997C27.6644 35.3404 27.3253 35.2908 26.5414 35.2795C26.3037 35.2758 26.1375 35.2822 26.3304 35.4886C26.8699 36.0662 27.2444 36.5039 28.1251 36.3844C28.477 36.3363 28.9887 36.3947 29.4724 36.394C29.5131 35.9128 30.0374 34.9647 29.2835 34.2129C29.1604 34.09 29.0729 33.989 28.9162 33.8956C28.4986 33.7123 28.1372 33.6826 27.765 33.9458C27.5304 34.1122 27.6644 34.2631 27.6644 34.5997ZM28.93 30.939C28.932 31.0262 29.2218 32.2872 29.3979 32.3764C29.5084 32.4329 31.8048 32.3806 32.1548 32.3447C32.6016 32.2985 32.8389 32.2891 32.8359 31.5851C32.8329 30.8377 32.9481 31.485 32.6907 30.3644C32.4825 30.3644 29.225 30.8706 28.93 30.939ZM17.0322 17.1562C17.0322 17.5546 17.2818 19.5273 17.3207 20.1009L17.5798 22.6784L17.7197 22.9706C18.4769 22.9706 18.3602 23.0278 18.3808 22.668C18.4095 22.1603 18.407 21.9627 18.407 21.427L18.4427 18.8433C18.4427 18.5502 18.567 17.3845 18.3622 17.2361C18.3548 17.2312 17.7291 17.0127 17.6112 17.0127C17.3321 17.0127 17.2343 17.1093 17.0322 17.1562ZM11.138 19.0586C11.1727 19.2048 11.4136 19.5219 11.507 19.6615C11.6484 19.8718 11.7681 20.0498 11.9117 20.2643L13.5251 22.6479C13.8149 23.0794 14.0536 23.421 14.3206 23.8678C14.4992 23.8636 14.603 23.7823 14.6463 23.6167C14.655 23.5813 13.9947 21.7428 13.9268 21.5307C13.7339 20.9271 13.4934 19.7846 13.2841 19.369C13.1731 19.1488 13.0629 18.9819 12.9393 18.778L12.5844 18.197C11.9308 18.3481 11.4632 18.5765 11.138 19.0586ZM36.2347 37.973C36.2347 38.0846 36.2551 38.0202 36.4247 38.1797C37.0818 38.7977 37.4132 38.8479 38.4071 39.0474C38.8695 39.1406 39.3666 39.16 39.9244 39.1588C40.1411 39.1588 40.2939 39.1219 40.7192 39.1221C43.2219 39.1226 45.4644 39.0624 47.9513 38.9784L47.8067 38.2603C47.5535 38.2603 47.3004 38.2608 47.0473 38.2603C46.7456 38.2603 46.5438 38.2974 46.2894 38.2976C45.7235 38.2984 45.2796 38.332 44.7327 38.332C44.1695 38.332 43.7378 38.3709 43.1776 38.3682L38.5837 38.5102C38.259 38.5112 38.2023 38.5613 37.8592 38.5141C37.6074 38.4797 37.434 38.4252 37.2467 38.3328C37.063 38.2431 36.9215 38.1401 36.7261 38.06C36.4574 37.9511 36.2347 37.7739 36.2347 37.973ZM26.6157 26.3802L27.339 27.2062C28.3269 26.6871 30.4624 25.1986 31.4615 24.5142C31.3976 24.2421 31.117 23.8899 30.9474 23.6968C30.5912 23.2923 30.7371 23.4395 30.268 23.0426L29.3545 23.8585C29.0038 24.2087 28.5734 24.5719 28.1979 24.9002C28.1147 24.973 28.0629 25.0406 27.9809 25.1155C27.8886 25.2006 27.8393 25.2192 27.7449 25.3119C27.4556 25.5967 26.7413 26.1944 26.6157 26.3802ZM18.8407 18.2685L18.841 20.1714C18.8422 20.4113 18.8095 20.5128 18.8033 20.7081C18.7981 20.8839 18.8142 21.0741 18.8045 21.2483C18.7803 21.6985 18.7087 22.4117 18.7711 22.8236L19.6365 23.0785C19.6667 22.9497 19.6922 22.9455 19.7249 22.771L20.1323 20.2685C20.1868 19.9465 20.5554 17.7094 20.5767 17.4076C20.6019 17.0483 19.3549 16.9795 19.0292 17.0562C18.6748 17.1398 18.8407 17.7099 18.8407 18.2685ZM23.8675 24.263L25.1332 25.0526C25.1592 24.955 25.9649 23.7936 26.0976 23.5695L27.6644 20.9964C27.3853 20.5828 26.6024 20.252 26.1454 20.0633C26.0498 20.2427 25.9661 20.3825 25.8685 20.5781L25.5787 21.1156C25.3791 21.4697 25.2129 21.8135 25.0036 22.1603C24.8961 22.3387 24.836 22.5012 24.7282 22.6764L23.8675 24.263ZM51.0252 17.8382L50.8447 16.9412C50.6681 16.8999 49.6937 16.935 49.3601 16.9392C49.1513 16.9422 49.0879 16.9788 48.8563 16.9773C48.5564 16.9761 46.0531 17.0483 45.7765 17.0793C45.6212 17.0965 45.4005 17.0847 45.239 17.0837C45.0067 17.0827 44.9262 17.1162 44.7342 17.1216C43.9167 17.1447 43.1199 17.2282 42.3823 17.2282C41.9746 17.2282 41.558 17.052 41.2915 16.8392C41.0322 16.6318 41.2068 16.7198 40.6468 16.5821C40.7021 16.664 40.7439 16.694 40.816 16.7726L41.1749 17.1339C41.1803 17.1393 41.188 17.1471 41.1927 17.1528C41.4473 17.417 41.5367 17.487 41.855 17.6077C42.0586 17.6846 42.2144 17.7283 42.4306 17.7903C43.1258 17.9891 43.2239 17.9249 43.7051 17.9967C44.0145 18.0432 44.1103 17.9793 44.4066 17.981C44.6958 17.9817 44.8972 17.9581 45.1305 17.9453C45.3557 17.9338 45.6246 17.9451 45.8542 17.9461C46.1465 17.9473 46.2844 17.908 46.5769 17.9097C47.0829 17.9124 47.5899 17.9097 48.0959 17.91L50.3017 17.8738C50.6978 17.8741 50.8355 17.8424 51.0252 17.8382ZM48.0236 40.0548C48.066 39.6761 48.0816 39.8083 47.9877 39.4809C47.4537 39.3571 46.8781 39.4451 46.2517 39.4451H43.4674C43.1142 39.4451 42.8878 39.4832 42.5636 39.4809C42.0643 39.4785 41.1437 39.4291 40.6924 39.4908C39.6118 39.6375 38.4081 39.4952 37.3877 39.1983C36.769 39.0179 36.6102 38.9032 36.2075 38.5028L35.0776 37.7582C35.1034 38.0637 35.777 38.8648 36.0792 39.1327C36.6741 39.6611 37.6351 40.1086 38.445 40.1944C39.0736 40.2612 39.4721 40.1605 39.8503 40.1619C40.019 40.1624 40.1881 40.1624 40.3573 40.1624C41.0087 40.1624 41.5652 40.1268 42.2377 40.1268C42.8613 40.1268 43.5791 40.1595 44.1906 40.1273C44.6154 40.1044 44.6218 40.0909 45.131 40.0909L48.0236 40.0548ZM28.3515 29.2877C28.4538 29.4794 28.7004 30.2828 28.7851 30.5438C29.0001 30.5438 31.6453 30.1223 32.024 30.0616C32.5944 29.9702 32.9062 30.0513 32.9815 29.5047L33.0524 28.8213L32.7272 27.6724C32.0079 27.7323 28.9825 28.8677 28.3515 29.2877ZM25.4945 25.3394C25.5641 25.4338 26.1293 25.8847 26.2539 25.9853C26.4127 25.9435 26.8649 25.5613 27.0041 25.438L29.3008 23.3382L29.9064 22.6118C29.5349 22.0613 28.6296 21.5614 28.0622 21.2122C27.9262 21.3021 26.8087 23.1733 26.7587 23.2564L26.4419 23.7673C26.3005 23.9897 25.5289 25.1937 25.4945 25.3394ZM22.0954 23.4731C22.3087 23.5852 23.1599 23.9246 23.4695 24.0475C23.8081 23.4122 24.4337 22.4643 24.8082 21.7509C25.2345 20.9367 25.3741 20.6845 25.7479 19.8121C25.6684 19.7907 25.0997 19.3779 24.8907 19.299L23.8316 18.9507C23.8202 19.0778 22.46 22.5147 22.3069 22.8936C22.2363 23.0701 22.1435 23.2694 22.0954 23.4731ZM67.507 45.8556C67.4394 45.8966 67.3594 45.9485 67.2618 46.0134C67.1544 46.0847 67.0761 46.1343 66.9525 46.2083L65.4902 46.7669C65.1856 46.8232 63.1123 46.1925 63.1034 46.1925C62.7792 46.1925 62.3977 46.8551 62.2358 47.1259C62.3804 47.3407 62.8549 47.5575 63.1289 47.6752C63.3525 47.7484 64.203 47.9514 64.4416 47.9514C65.3599 47.9514 66.3479 47.1684 68.022 47.1267C68.3368 47.1183 68.6273 47.1036 68.895 46.9163C69.7282 46.3346 69.9759 45.9601 70.4806 45.1518C69.8198 44.8237 69.8889 44.7431 69.2606 45.3769C69.2123 45.4255 69.1534 45.4722 69.0875 45.5145C68.8544 45.7263 68.5438 45.8556 68.2028 45.8556H67.507ZM64.4052 48.3463C63.3941 48.3463 62.7073 47.9268 61.8739 47.4845L61.5123 47.987C63.1363 49.0667 64.1369 49.2488 66.0121 48.7206C67.0436 48.4299 68.1522 48.0536 69.2502 48.0581C69.5268 48.0593 69.9959 48.0809 70.2008 48.0325C70.7655 47.8991 71.6809 47.293 72.0083 46.9195L72.8672 45.7979C72.7503 45.7423 72.0063 45.5605 71.8183 45.5108C71.5741 45.6733 71.2274 46.2021 70.7201 46.3228C69.5851 46.5919 69.5556 47.179 68.6605 47.4727C68.2506 47.6071 67.8597 47.4977 67.5061 47.5835C67.3258 47.627 67.1888 47.6735 66.9944 47.7216C66.2979 47.8944 64.9238 48.3463 64.4052 48.3463ZM27.5921 27.5647C27.606 27.7294 28.0647 28.5748 28.1707 28.7852C28.3921 28.767 30.6561 27.908 31.0231 27.7758L32.1625 27.3632C32.4562 27.262 32.447 27.259 32.6907 27.0983C32.6907 26.4866 32.5166 25.625 32.1384 25.2421L31.7147 24.8732C31.6465 24.8732 31.2827 25.1349 31.2007 25.1893L29.4209 26.3654C29.1497 26.5485 27.7489 27.5232 27.5921 27.5647ZM69.7572 48.4899C68.0975 48.4899 68.7665 48.352 66.9366 48.8487C66.6664 48.9221 66.5171 48.9701 66.2855 49.0998C66.3625 49.3852 67.5499 49.481 67.7683 49.4948C68.7415 49.4948 69.4008 49.1952 70.1758 48.977C70.8913 48.7749 71.8327 48.5599 72.7224 48.5619C73.7552 48.5636 73.9835 48.5646 74.9599 47.8391C75.2264 47.6408 75.8735 47.0377 76.0652 46.7465L76.3387 46.2645L75.2179 45.9773C75.1337 46.2899 74.497 46.729 74.1022 46.844C73.3757 47.0554 72.9889 46.6963 72.143 47.3405C71.8211 47.5855 71.717 47.745 71.2876 47.9988C70.8903 48.2338 70.3724 48.4899 69.7572 48.4899ZM43.9013 28.1391C43.9013 27.9842 43.8968 28.01 43.8651 27.8518C43.858 27.8535 42.2099 27.9771 41.8055 28.0331C41.1417 28.1255 40.492 28.2268 39.8166 28.3207L38.3021 28.5038C37.8295 28.5544 36.9708 28.4998 36.8259 28.7259C36.8064 28.7569 36.5381 29.5637 36.5381 29.5893C36.5369 29.7357 36.7759 29.6836 36.9577 29.6824C38.2744 29.675 39.6254 29.6485 40.9356 29.7185L43.2105 29.7151C43.5793 29.6782 43.5863 29.4649 43.697 29.0847C43.7747 28.8166 43.9013 28.4494 43.9013 28.1391ZM21.6977 23.3296C21.7395 23.1505 21.8482 22.9693 21.9198 22.7963L22.3636 21.7295C22.4375 21.5371 22.4999 21.3791 22.5762 21.1864C22.7238 20.8118 22.8387 20.4533 22.9677 20.0682L23.3246 18.879C23.1792 18.8401 23.0443 18.7119 22.8761 18.6426C22.6898 18.5659 22.5628 18.5135 22.38 18.4523C22.2155 18.4103 21.1206 18.1665 20.892 18.2592C20.7503 18.3164 20.7837 18.4671 20.7315 18.8175L20.1118 22.9831C20.1083 23.1578 20.2391 23.1185 20.4055 23.1399C20.5799 23.1625 20.6782 23.1787 20.8454 23.2065C21.0126 23.2348 21.0834 23.2434 21.2573 23.264C21.3871 23.2792 21.5552 23.3267 21.6977 23.3296ZM44.0819 19.3813L47.4089 19.3098C47.7435 19.3098 48.1296 19.3275 48.4578 19.3098C48.8905 19.2867 48.9304 19.2739 49.4336 19.2739C49.7787 19.2739 50.142 19.2855 50.4838 19.2746C50.674 19.2692 50.7292 19.2343 50.9524 19.2373C51.1384 19.2397 51.3316 19.2916 51.3427 19.1395L51.1698 18.2685C50.6032 18.2685 50.0367 18.2685 49.47 18.2685L46.9747 18.3044C46.6438 18.3042 46.4553 18.3422 46.1438 18.3408L44.8412 18.3405C44.6775 18.3491 44.6433 18.3774 44.4445 18.3781C43.1092 18.3796 42.388 18.3727 41.5026 17.8859C41.1578 17.6961 40.8165 17.4103 40.5656 17.1289C40.0202 16.5165 40.5188 16.7743 39.5615 16.4022C39.8233 16.9434 39.614 16.8596 40.2575 17.5784C41.193 18.6231 42.5069 19.3813 44.0819 19.3813ZM69.2871 49.7818C69.4394 49.8172 69.4884 49.8577 69.6353 49.9027C70.0517 50.0322 70.765 50.1047 71.2036 50.1047C71.2631 50.1047 71.321 50.1033 71.3777 50.1008C71.614 49.7594 72.01 49.5353 72.4588 49.5353H73.5996C74.4813 49.2935 75.2987 49.1541 76.3387 49.0998C76.6649 49.0831 76.7654 49.1109 77.0314 49.0332C77.4344 48.9163 77.8874 48.5621 78.2344 48.3255C78.5591 48.1035 79.5047 46.8271 79.8106 46.4439C79.4995 46.4181 78.9296 46.1943 78.7463 46.168C78.385 46.1168 78.4412 46.717 77.4245 47.0905C77.2395 47.1581 76.916 47.2333 76.6656 47.2348C76.3525 47.2368 76.2213 47.1822 75.9974 47.469C75.5897 47.9917 74.3555 48.7629 73.8057 48.8828C72.9698 49.0647 72.2481 48.8263 70.5765 49.2669C70.333 49.3313 70.1076 49.394 69.8699 49.4633C69.32 49.6238 69.2925 49.5434 69.2871 49.7818ZM17.6474 51.3252C17.6474 51.5876 17.8015 51.8897 17.8725 52.143C17.9424 52.392 18.0286 52.721 18.1222 52.9715C18.574 54.1717 19.6184 54.2479 20.752 54.6689L22.3847 55.2015L23.2164 53.9452C23.2479 53.8412 22.7755 53.4541 22.6465 53.3261C22.0531 52.737 21.903 52.6001 21.4086 51.8992C21.3613 51.8326 21.3333 51.7746 21.2741 51.71L20.8657 51.5048C20.6594 51.4724 20.0325 51.8899 18.6552 51.2581C18.5472 51.2089 18.4712 51.1652 18.3724 51.1082C18.1343 50.9703 18.0405 50.8585 17.8049 51.0506C17.7395 51.1045 17.6474 51.2288 17.6474 51.3252ZM31.0271 59.2215C31.6262 59.3599 31.9296 59.4897 32.6751 59.5963L34.5352 59.7956C34.6402 59.3471 34.7512 59.1178 34.3764 58.8406C33.9252 58.5074 34.2268 58.8571 33.5948 58.2523C33.8741 58.1193 34.4081 58.0625 34.5456 57.9758C34.6831 57.8895 34.7229 57.7654 34.7621 57.5804L34.9691 57.1397C35.5947 57.1397 35.6713 57.3292 35.7268 57.7514C35.8063 58.3548 35.7988 58.2619 36.1263 58.7192C36.8638 58.5482 36.9689 57.2899 37.1383 56.601L37.3196 55.7397C37.243 55.7038 35.2522 55.2735 35.1499 55.2735C34.8579 55.2735 34.5914 55.719 34.3457 55.983C33.6916 56.6851 32.8958 57.24 32.107 57.7802C31.6161 58.1166 31.4779 58.386 31.1968 58.8871C31.1455 58.9782 31.0501 59.1372 31.0271 59.2215ZM30.0149 34.7071C30.0849 35.2994 30.1379 35.3542 29.9931 35.9779L29.834 36.5739C30.0535 36.5918 30.2749 36.6877 30.5241 36.7147L32.0602 36.9123C32.4619 36.9676 34.0874 37.0637 34.5 37.075C34.6821 37.0799 34.6999 37.1109 34.8953 37.1136C35.4186 37.1195 36.2659 37.2168 36.5822 37.0617L36.8854 36.8966C36.8393 36.725 36.6536 36.6484 36.5324 36.5292L35.4303 35.3618C35.1606 35.0912 34.8819 34.9701 34.5565 34.7582C34.3006 34.5919 33.8583 34.2977 33.5586 34.2402C33.4288 34.2159 32.024 34.4294 31.7934 34.4624C31.5066 34.5034 31.2114 34.539 30.9035 34.5843L30.0149 34.7071ZM41.7676 37.2915L41.8456 36.3638C41.8761 36.0785 41.8884 35.7169 41.933 35.4097C41.9553 35.2576 41.962 35.075 41.9778 34.9514C42.0492 34.3931 42.0769 34.2014 42.1923 33.6211C42.33 32.9301 42.9205 31.2557 43.1778 30.472C43.027 30.3926 42.5859 30.1545 42.4019 30.1356C42.1391 30.109 41.9957 30.5227 41.8882 30.735C41.0803 32.3398 40.258 34.106 39.136 35.4695C39.0424 35.583 38.9555 35.6727 38.869 35.7786C38.477 36.262 37.8704 36.7793 37.3495 37.1421C36.8084 37.5183 37.539 37.3628 38.4408 37.3633C38.8992 37.3633 39.0612 37.3262 39.4892 37.3274C39.8751 37.3281 40.2607 37.3266 40.6468 37.3276C41.0404 37.3281 41.345 37.2915 41.7676 37.2915ZM48.3491 41.706L48.2408 40.45C44.9329 40.45 41.7198 40.5318 38.4408 40.5578C37.9702 40.5615 36.9339 40.1283 36.4468 39.9525C36.2469 39.8808 36.0837 39.7299 35.9561 39.5778L35.5474 39.1221C35.3077 38.8103 35.1373 38.7252 34.7811 38.16C34.5696 37.8236 34.6585 37.844 34.3541 37.7221C34.3541 38.3286 34.7559 38.8395 35.093 39.2861C35.6643 40.0422 36.6456 41.0911 37.5256 41.4659C37.9675 41.6539 38.9017 41.8289 39.4102 41.8925C40.0128 41.9677 40.472 41.956 41.0813 41.9582C41.3213 41.9591 41.3931 41.9208 41.6217 41.9203C42.0073 41.9196 42.3942 41.9216 42.7801 41.9216C43.1991 41.9216 43.5186 41.8842 43.9013 41.8854C44.7055 41.8886 45.3834 41.8488 46.1792 41.8495C46.5163 41.85 47.4787 41.8156 47.8398 41.7751C47.9929 41.7581 48.197 41.7092 48.3491 41.706ZM44.7327 57.5703C44.3018 57.4708 43.323 57.2115 42.9247 57.2115C42.441 57.2115 42.0564 57.3658 41.7948 57.5973L41.2252 58.5396C41.344 58.5963 41.5543 58.644 41.6953 58.6831C43.0535 59.0596 44.7521 59.5651 46.1026 59.9797C46.414 60.0753 46.7637 60.1746 47.0832 60.2623L49.0723 60.8369C49.1124 60.6661 49.3796 60.2063 49.3529 59.877C49.318 59.4523 49.1805 59.265 49.0582 58.9124L48.4216 57.0323L44.7687 56.9962C44.7687 57.2469 44.7327 57.3395 44.7327 57.5703ZM64.4913 44.0867L63.6817 43.8593C63.3411 43.8129 62.7963 43.9274 62.5003 44.0864C61.8108 44.4563 61.2181 45.2542 60.7059 45.8588C60.6534 45.9212 60.6162 45.9453 60.5634 46.0045C59.8137 46.8418 59.9576 46.7448 58.5895 46.5811L57.6069 46.4439L57.679 48.0949C57.846 48.1338 58.2455 48.308 58.4983 48.3589C59.3328 48.5272 60.0651 48.6007 60.7643 48.0347C61.3364 47.5722 61.9767 46.7143 62.4317 46.136C62.4872 46.0657 62.553 45.9753 62.6073 45.9156C62.9436 45.546 63.3449 45.6494 63.7439 45.8082C63.938 45.8856 64.0913 45.9485 64.286 46.0242C64.6712 46.1744 65.1846 46.3722 65.5987 46.3722C65.8967 46.3722 66.3474 46.1554 66.791 45.8556H65.802C65.0783 45.8556 64.4913 45.2732 64.4913 44.5551V44.0867ZM37.3196 16.3666C37.3914 16.9338 37.438 17.0771 37.2993 17.6743C37.192 18.1341 37.0481 18.386 37.2386 18.6003C37.3411 18.7151 37.3461 18.644 37.3575 18.8414C37.3718 19.0999 37.3924 19.2764 37.3921 19.5607C37.3916 19.7969 37.3807 20.0385 37.4127 20.2582C37.428 20.3638 37.4179 20.4995 37.4419 20.5877L37.6453 20.7814C37.7126 20.8079 38.3489 20.7266 38.3541 20.7273L38.7298 20.9964C38.7298 21.7649 38.6667 21.991 38.5493 22.7197C39.7034 22.9485 40.0083 22.0893 40.1842 21.9733L41.6953 21.3557H41.9845C42.6887 21.3557 42.6723 21.8138 42.1943 19.891C42.099 19.5076 42.0167 19.3562 41.6831 19.1781C40.7833 18.6983 40.2426 18.2911 39.6442 17.4693C39.4592 17.2155 39.355 16.9272 39.1992 16.6544C39.0099 16.3246 38.8916 16.3514 38.2597 16.3305C37.8186 16.3167 37.5194 16.3666 37.3196 16.3666ZM37.2836 28.1749C38.4024 28.1749 39.4942 27.9751 40.5805 27.8223C41.5801 27.6817 42.8217 27.5515 43.8651 27.4215C43.9969 27.1484 43.8827 26.3453 43.8292 26.0209C43.7425 25.4996 43.3247 24.0524 42.8621 23.7511L41.6953 23.2937C41.4223 23.2424 40.8187 23.377 40.5532 23.4876C40.0623 23.6931 39.886 23.8858 39.5895 24.2188C39.5038 24.3146 39.4233 24.4453 39.3515 24.5572C39.1972 24.7958 39.0535 25.0266 38.9086 25.2662C38.8423 25.3763 38.7737 25.4763 38.7006 25.5977C38.3873 26.1138 37.9063 26.8616 37.6448 27.3853C37.5801 27.5151 37.5227 27.6279 37.4521 27.768C37.3944 27.8815 37.2933 28.0577 37.2836 28.1749ZM34.4267 34.0972C34.4703 34.2594 34.6298 34.3179 34.7754 34.3967C35.5333 34.8032 35.7434 35.1107 36.2258 35.6135C36.3363 35.7292 36.4371 35.8538 36.5394 35.9838L37.2111 36.6459C37.5821 36.5594 38.5072 35.5206 38.8111 35.1822C38.871 35.1156 38.9106 35.0573 38.9718 34.9831L39.4025 34.4056C39.4659 34.3142 39.4937 34.2876 39.5548 34.1977C40.0311 33.5019 40.948 31.8438 41.2853 31.1061L41.6953 30.1132L37.1749 30.0771C37.1638 30.2096 37.0035 30.5273 36.9421 30.6721C36.6897 31.2712 36.312 32.1542 35.989 32.6688C35.6651 33.1854 35.086 34.0972 34.4267 34.0972ZM23.2887 47.3051C24.3262 47.5113 24.6329 47.5594 25.7273 47.1055C26.3366 46.8524 27.386 46.2948 27.9611 45.9129C28.3042 45.6846 28.6311 45.4292 28.9387 45.1601C29.1668 44.9613 29.2012 44.8635 29.3365 44.7295C29.6614 44.4076 30.2437 43.5563 30.3886 43.1899L31.172 40.5217C31.1968 40.3487 31.1415 39.3893 31.0987 39.2276C31.0596 39.0823 31.088 39.1312 30.989 39.1482C30.7215 39.1946 29.0066 39.7761 28.7175 39.8798C27.4309 40.3423 25.9064 41.1022 25.417 42.4543C25.2756 42.8468 25.1493 43.243 24.9647 43.6209L24.6215 44.357C24.4369 44.8111 23.2969 46.936 23.2887 47.3051ZM24.0843 47.8794C23.6838 47.8794 23.2387 47.7224 23.0356 47.7003C22.9182 47.687 22.7728 48.0645 22.672 48.2367L21.4688 50.4156C21.1547 51.1175 21.2786 51.0275 21.899 51.8437L22.593 52.6979C22.7802 52.9088 23.1589 53.2863 23.3821 53.4581C23.5218 53.5657 23.6548 53.694 23.7863 53.8102L24.2289 54.1609C24.3664 53.9574 24.4902 53.8618 24.6544 53.6856C25.2186 53.0806 25.978 52.1568 26.5878 51.4773L27.5453 50.381C27.6015 50.3149 27.5953 50.3072 27.6557 50.2399L28.5112 49.2591C28.6477 49.0851 28.7921 48.9487 28.9253 48.7722C28.991 48.6852 29.063 48.5941 29.117 48.4955C29.2788 48.2009 30.1283 45.5344 30.1236 45.3314L29.9428 44.7571C29.8135 44.7912 29.577 45.1024 29.3734 45.3049C28.4708 46.2053 27.0844 46.9613 25.9079 47.4282C25.3655 47.644 24.6928 47.8794 24.0843 47.8794ZM31.4977 39.0504C31.6644 40.9543 31.568 41.5777 30.7264 43.4175L30.3403 44.3624L30.5211 45.08C30.8706 45.08 33.7966 44.8369 34.2511 44.762C35.5385 44.5494 36.3227 44.3189 37.5596 43.9542C38.3001 43.7365 40.1109 43.0803 40.7127 42.633L40.9356 42.4244C40.8103 42.3639 39.003 42.2236 38.4012 42.1044C37.9762 42.0201 37.6651 41.9513 37.2985 41.7989C36.8735 41.6225 36.5488 41.387 36.2258 41.1049C36.1565 41.0437 36.1121 40.9904 36.0458 40.9245C35.9608 40.8412 35.9343 40.8343 35.8476 40.7623C35.7379 40.6711 35.0994 39.972 34.9835 39.8248C34.6149 39.3568 34.4242 39.0423 34.1609 38.524L33.92 38.045C33.6864 38.0993 31.6792 38.9297 31.4977 39.0504ZM38.947 15.9714C39.4781 15.9714 40.579 15.9896 41.0132 15.9412C41.9967 15.8316 42.1094 16.227 42.0259 15.5001L41.9749 14.6176C41.8817 13.9299 41.8701 13.0759 41.7775 12.3731C41.7552 12.2028 41.7426 11.9546 41.7329 11.8071C41.7198 11.6157 41.7114 11.4446 41.6896 11.2392C41.6031 10.4156 41.4151 8.69509 41.3686 7.861C41.3156 6.91017 41.1107 5.51894 41.0429 4.52338C40.9671 3.40053 40.6966 1.26663 40.5384 0.107149H40.2847C40.1304 0.336685 40.099 0.691066 40.047 0.984252C39.7758 2.51163 39.429 4.22971 39.1246 5.73963C38.9527 6.5924 38.5493 8.75137 38.5478 9.68967C38.5468 10.4434 38.5493 11.1979 38.5493 11.9516C38.5493 12.7093 38.5126 13.3925 38.5129 14.1769C38.5136 15.3337 38.2367 15.9714 38.947 15.9714ZM44.2988 28.2826C44.8264 28.56 48.0501 29.6952 48.6163 29.8839C49.0069 30.0147 49.3514 30.1073 49.746 30.2344C50.1251 30.3565 50.5006 30.4686 50.8949 30.5654C51.1887 30.6251 53.3885 30.9748 53.5929 30.9748C55.1453 30.9748 56.5627 30.5615 58.079 30.6858C58.2764 30.7016 58.4364 30.6797 58.6348 30.7079C58.8302 30.736 59.0053 30.7453 59.1945 30.7623C59.9866 30.8335 61.3419 31.2184 62.0911 31.5128L63.8471 32.1741C64.1642 32.3004 64.4735 32.4231 64.7841 32.5425C65.0243 32.2488 65.3911 32.0611 65.802 32.0611H68.5411C69.0397 32.0611 69.4734 32.3378 69.6948 32.7443L70.1634 33.4572C70.2919 33.337 70.3967 33.2073 70.4569 33.1041L70.7694 31.6924C70.8195 31.2383 69.9402 31.2044 69.561 31.1334C67.9412 30.8294 66.7727 30.6662 65.1242 30.1892C63.433 29.7001 62.852 29.3189 60.9493 29.0203C60.3804 28.9309 59.8358 28.9041 59.2706 28.8928L57.7721 28.9852C56.7728 29.1226 54.2911 29.4932 53.5567 29.5389C52.5861 29.5993 51.2976 29.4598 50.4132 29.2848C49.7197 29.1474 49.0745 28.9444 48.3924 28.7778C47.7502 28.621 47.074 28.4202 46.4246 28.2543C46.0875 28.1683 45.771 28.0811 45.4327 27.9828C44.9923 27.8552 44.8459 27.8306 44.4076 27.7444C44.3323 27.8999 44.3647 28.1469 44.2988 28.2826ZM52.4714 28.1749C51.1456 28.1749 47.6734 27.722 46.274 27.3996C45.5791 27.2393 45.0963 27.1398 44.4076 27.0265C44.439 27.4055 44.9111 27.4731 45.1823 27.5495C46.2168 27.8405 47.3507 28.0811 48.3932 28.3467C49.1047 28.5283 49.8056 28.6982 50.5333 28.878L52.8699 29.216C53.4844 29.2602 57.7523 28.5927 59.1254 28.534C61.0278 28.4526 62.5298 28.9284 64.3187 29.3737C65.7188 29.723 67.0127 30.1189 68.4987 30.4649C69.0359 30.5902 71.1702 30.9028 71.6375 30.9028C71.9692 30.9028 72.1705 30.6327 72.2743 30.386C72.3451 30.169 72.5056 29.519 72.5056 29.2877C72.5056 29.083 72.4261 28.7173 72.3276 28.3814H65.802C65.0783 28.3814 64.4913 27.7989 64.4913 27.0808V26.9624C63.4679 26.794 61.733 26.524 61.1871 26.524C60.2613 26.524 59.7813 26.65 58.9521 26.8542C58.2672 27.0233 57.5995 27.2256 56.8981 27.3998C55.3858 27.7756 54.1286 28.1749 52.4714 28.1749ZM44.1544 25.5908L44.2988 26.5957C44.4142 26.5982 44.6238 26.664 44.7781 26.6945L48.2302 27.3236C49.4279 27.5234 51.3276 27.78 52.5801 27.78C53.815 27.78 55.8026 27.2691 56.9845 26.9474C57.6595 26.7633 58.3522 26.611 59.0677 26.4311L61.4036 26.129C61.9727 26.0926 63.4848 26.3556 64.4913 26.5328V24.0912C63.2753 23.9202 62.0455 23.7243 60.8255 23.7243C58.7965 23.7243 56.9553 24.6972 55.1488 25.4839C54.3277 25.8412 53.1305 26.1875 52.1826 26.2369C51.9644 26.2482 51.7722 26.2546 51.5973 26.2689L48.0694 26.0474C47.1159 25.9236 46.3439 25.8729 45.291 25.7186L44.1544 25.5908ZM0 48.9204C0 49.1227 0.272196 50.9777 0.33461 51.2089L0.433929 51.5048C0.991943 51.4586 2.94487 50.6402 3.24431 50.2738L3.7248 49.3871C3.74734 49.2989 3.72381 48.5941 3.49916 48.3906L2.96518 47.8794C2.96518 47.2041 3.08654 47.1785 3.68641 47.0517C3.91576 47.0035 4.01012 46.947 4.1513 46.7951C4.22089 46.688 4.41903 46.224 4.37569 46.0847L3.76145 45.1879C3.72579 45.0751 4.51959 43.8394 4.87253 43.4909L5.88949 42.3831C5.93531 42.3273 5.9628 42.3052 6.00812 42.2499C6.09258 42.1462 6.15004 42.082 6.23574 41.9727C6.71994 41.358 6.54013 41.5391 7.12465 40.9523C7.42161 40.9523 7.59622 41.6215 7.72303 41.9373C7.88253 42.3334 8.04129 42.6932 8.17776 43.1009C8.42197 43.8311 8.62952 44.6996 8.91881 45.5605C9.06122 45.9844 9.79905 48.0468 9.9853 48.4854C10.0782 48.7056 10.1686 48.7722 10.3474 48.9155L11.3193 49.5668H11.5001C11.5001 48.2856 11.6002 47.2581 11.8278 46.1594C11.9288 45.6713 12.0759 45.211 12.2273 44.761C12.3459 44.4091 12.6042 43.8588 12.7657 43.5005C12.1733 43.1073 12.4898 43.3501 12.0695 42.8987C11.7775 42.5858 11.379 42.1911 11.1127 41.8751C10.8185 41.5261 10.4732 41.1671 10.1976 40.8093C9.87682 40.3925 9.36636 39.7218 9.10135 39.2767C9.01119 39.1248 8.93788 39.0327 8.84822 38.8825C8.74445 38.7085 8.45912 38.2136 8.30804 38.1263C7.61158 37.7253 6.43165 37.946 5.96106 38.578L4.94237 40.4738C4.02449 42.1825 3.07019 43.4543 1.92172 44.9773C1.11999 46.0412 1.23466 46.1635 0.775473 47.3564C0.606806 47.7924 0.445074 48.1271 0.181299 48.4904C0.0923833 48.6118 0 48.7142 0 48.9204ZM3.68889 53.9098C3.68889 54.6507 4.07179 54.9574 4.54956 55.244L8.43708 57.4162C9.08228 57.7738 9.91595 58.2542 10.5163 58.6541L11.5288 59.3363C12.4227 59.892 13.3388 59.5892 14.1886 59.9984C15.3512 60.5587 14.6503 60.3899 16.4197 60.1564C16.9561 60.0864 17.3098 60.0092 17.8282 59.8671C17.8111 59.6664 17.4421 59.0461 17.3343 58.85C17.1018 58.4275 16.5918 57.6951 16.1804 57.3754C16.0818 57.2995 16.0697 57.2678 15.9635 57.1958L14.863 56.7809C14.5547 56.7809 14.2751 56.8851 14.0346 56.9635C13.7539 57.0545 13.7497 57.1813 13.5972 57.5344L12.8415 57.4231C12.117 57.3037 12.4561 56.6625 12.1371 56.3995L11.5358 56.0987C11.3195 56.0478 10.9782 56.1294 10.7855 56.3597L10.4512 56.7451C10.1334 56.7451 8.79671 55.849 8.4824 55.6121C8.47547 55.6067 7.03994 54.4671 6.98966 54.402L6.83487 54.1609C7.33814 53.9211 9.24723 53.9331 9.94691 53.8751C10.0665 53.8658 10.2196 53.8731 10.3425 53.8734C10.9072 53.8741 11.1774 53.8358 11.8263 53.8387C12.0918 53.8397 12.2518 53.8014 12.5485 53.8019C13.0582 53.8029 13.509 53.7825 14.0323 53.767C14.2941 53.7596 14.2884 53.7299 14.7543 53.7301C16.4256 53.7301 16.3013 53.7279 17.6474 52.9046C17.6474 52.5908 17.2494 52.577 16.9732 52.4969C15.802 52.1578 15.5654 52.042 14.4878 51.6613C14.0365 51.5023 12.4172 50.8373 12.2169 50.6132L11.7889 49.9253L10.709 50.3249C9.77379 50.7061 8.91386 51.018 7.9712 51.3763C7.77356 51.4517 7.61703 51.5124 7.42409 51.5871C7.04291 51.7351 6.6979 51.8491 6.31772 51.9966C5.8823 52.1654 4.44281 52.6687 4.15031 52.8599C3.85978 53.0501 3.68889 53.5374 3.68889 53.9098ZM64.4913 20.7352C64.3786 20.7212 64.2565 20.7045 64.1052 20.6845C63.3887 20.5907 61.6728 20.4105 61.0061 20.3862C59.8722 20.3456 58.3522 20.66 57.3915 21.2137C56.3864 21.7922 55.6753 22.3628 54.666 22.9593C54.1595 23.2583 53.7806 23.5164 53.2317 23.7609C53.1116 23.8142 53.0344 23.8523 52.9014 23.8998C52.6485 23.9902 52.5157 24.0487 52.2034 24.104C51.6954 24.1679 50.5516 24.2266 49.9768 24.2266C48.6225 24.2266 45.2477 23.8066 43.4674 23.6525C43.478 23.7796 43.7708 24.4896 43.8409 24.6454C44.0568 25.1249 44.0427 25.1573 44.6208 25.2713C45.3752 25.4203 46.4348 25.4321 47.1407 25.5343C47.4233 25.5753 51.3925 25.9017 51.6298 25.8683C51.8242 25.8412 52.091 25.8589 52.3119 25.827C53.7531 25.6203 54.2059 25.5092 55.5086 24.8722C55.8162 24.7221 56.165 24.593 56.4959 24.4522C56.7918 24.3522 60.9 23.3296 61.0061 23.3296C61.5705 23.3296 62.5335 23.4505 63.1185 23.5299C63.5467 23.5879 64.0133 23.6535 64.4913 23.7196V20.7352ZM12.8378 34.7433C13.3978 34.8725 13.5808 35.0669 13.7133 35.6326C13.9127 36.483 13.7574 36.2077 14.3206 36.8251L14.5586 36.1286C14.9339 34.8246 14.5138 35.801 15.4052 34.061L15.7309 34.1328L15.6105 34.3729C15.3995 34.7519 15.7175 34.9175 15.9991 34.8688C16.7097 34.746 18.1056 34.8511 18.8769 34.8511C19.371 34.8507 19.8653 34.8511 20.3597 34.8511L26.2901 34.8868L27.1943 34.815C27.233 34.6226 27.2302 34.6813 27.2302 34.4919C26.9605 34.4919 26.8481 34.4543 26.5798 34.4555C25.949 34.4592 25.0068 34.468 24.4439 34.4221C23.5792 34.3508 22.3837 34.5209 21.5738 34.3992C21.2949 34.3577 19.1912 34.384 18.7322 34.3842C18.2874 34.3842 17.7755 34.2977 17.3371 34.3636C16.6988 34.4594 16.596 34.3697 16.1287 34.1689C16.4593 34.0925 16.1175 34.1385 16.5586 34.0932C16.8979 34.0591 17.0614 33.6236 17.2239 33.2456C17.4676 32.6794 17.5629 32.3926 18.0395 32.0458C18.2374 31.9018 18.4432 31.7844 18.6327 31.6293C18.8407 31.4587 18.9834 31.3543 19.1751 31.1631L19.8894 29.8621C19.8894 29.43 19.6452 29.009 19.4505 28.7544C18.5197 27.5345 18.6275 27.9742 19.2536 27.0774C19.5748 26.6166 20.1462 25.9083 20.5147 25.4217C21.0525 24.7127 21.1015 24.5695 21.3722 23.7604L18.0811 23.4014C16.8957 23.337 15.0656 23.5083 14.4531 24.61C14.1178 25.2136 13.8731 26.0809 13.7321 26.8017C13.4884 28.0501 13.6365 29.3175 13.5982 30.5809L13.5241 31.5121C13.423 32.995 12.8442 34.4515 12.8378 34.7433ZM19.3106 27.6724C19.4436 27.8242 19.5988 27.9149 19.7707 28.0413C19.9448 28.1686 20.0635 28.2723 20.1948 28.4463L20.649 29.6824V30.1132C20.649 31.2987 20.2438 32.2449 19.7688 33.1876L19.3472 34.0972C20.6418 34.0972 21.8611 34.1328 23.1802 34.1328L26.0733 34.1689C26.5192 34.1689 26.5665 34.1694 27.0135 34.2046C27.0712 34.0861 27.2045 33.6627 27.4408 33.5523L28.3155 33.3434L28.93 33.3791C28.93 32.5479 28.8339 32.1837 28.6365 31.517C28.3294 30.4809 28.0451 29.3927 27.5559 28.4261C26.9982 27.3234 26.1318 26.3935 25.1646 25.6316C24.455 25.073 23.361 24.3795 22.5348 24.0779L21.7697 23.7961C21.6806 24.177 21.4767 24.5903 21.3123 24.9211C20.7473 26.0533 19.8577 26.8624 19.3106 27.6724ZM43.6843 30.2209C44.5817 30.6925 47.9166 32.4489 48.325 32.6138L53.7011 34.3122C54.1373 34.3798 55.4234 34.1328 55.7885 34.0871C56.539 33.993 57.6552 33.9175 58.4381 33.9175C59.3721 33.9175 60.4096 34.2046 61.2485 34.5381C62.2187 34.9232 62.6479 35.207 63.5083 35.7408C63.8385 35.946 64.154 36.1768 64.4913 36.3734V33.3616C64.4913 33.1893 64.525 33.0249 64.5865 32.8743C64.3143 32.7642 64.0416 32.6536 63.7647 32.5435L62.4928 32.0473C62.051 31.8891 61.6109 31.7229 61.1428 31.5927L58.0406 31.0825L53.4841 31.3336C51.794 31.3801 50.1616 30.751 48.5871 30.3076C47.9077 30.1167 45.9954 29.4158 45.3116 29.144L44.2267 28.7495C44.1901 29.1833 43.857 29.8967 43.6843 30.2209ZM62.4884 16.7613C61.2936 16.7613 60.0624 16.6895 58.9087 16.6895C57.4982 16.6895 56.8114 17.0048 55.8091 17.7409C55.2102 18.1803 54.7302 18.7441 54.2524 19.282L53.0222 20.6101C52.6537 20.9819 52.0541 21.5857 51.532 21.7509L47.9146 22.3245C47.074 22.3906 45.0322 22.2289 44.2629 22.1451C42.4692 21.9497 41.1905 21.1097 40.0163 22.8121C39.8761 23.016 39.7968 23.2463 39.7064 23.4731C39.8028 23.4476 40.1119 23.2724 40.2369 23.2097C40.8737 22.8919 41.561 22.77 42.2424 23.0015C42.6991 23.1568 43.086 23.1969 43.6331 23.2728C44.626 23.4112 45.5805 23.5368 46.574 23.6199C47.0488 23.6594 47.6251 23.7027 48.1014 23.7553C48.2294 23.769 48.3605 23.7516 48.4885 23.7656C49.0832 23.8312 50.7909 23.8858 51.264 23.8179C51.903 23.726 52.0062 23.6958 52.6012 23.5299C52.723 23.4957 52.7872 23.469 52.8949 23.4269C54.7015 22.7226 56.0877 21.2805 57.8905 20.5599C58.2923 20.3995 58.6791 20.2759 59.1542 20.1633L60.6442 19.9915C61.0152 19.9915 61.4216 20.0375 61.7994 20.0657C62.899 20.1486 63.7149 20.2852 64.4913 20.3459V16.5851C63.8092 16.7062 63.1063 16.7613 62.4884 16.7613ZM11.8614 48.4542C11.8614 49.4404 11.9249 49.5451 12.4398 50.2126C12.4871 50.2738 12.5096 50.3072 12.575 50.3657C12.9208 50.6751 16.1158 51.8992 16.9673 52.1081L17.4304 52.2224C17.4304 51.9939 17.3512 51.8987 17.3012 51.7048C17.1924 51.2851 17.1867 51.0067 17.5298 50.742C18.2646 50.1755 17.9776 50.5886 18.9286 50.915C19.2687 51.0315 19.8921 51.217 20.2512 51.217C20.8238 51.217 20.786 51.0096 20.8702 50.7552C20.9819 50.4168 23.129 46.5506 23.5267 45.6745C23.5745 45.5698 23.574 45.5838 23.6117 45.5081L24.2296 44.1832C24.3517 43.91 25.4529 41.6375 25.4036 41.5411C25.3583 41.4514 25.3335 41.4998 25.228 41.5428C24.4288 41.8682 22.5036 42.53 21.6828 42.7325C21.3863 42.8058 21.0943 42.8987 20.8345 43.0034C20.5717 43.109 20.2824 43.197 19.9936 43.2816C19.6942 43.3686 19.4359 43.414 19.0995 43.4701C18.7862 43.5229 18.4417 43.5386 18.1014 43.5922C17.0678 43.7554 16.3228 43.8957 15.3108 44.1252L13.4617 44.5148C12.2619 44.7531 12.4626 44.7787 12.1175 46.4828C12.0536 46.7959 12.0051 47.1095 11.967 47.4459C11.9296 47.772 11.8614 48.0908 11.8614 48.4542ZM12.9101 44.1825C13.5112 44.1825 15.6831 43.6374 16.4989 43.4733C17.9176 43.1889 18.5868 43.1958 20.1643 42.8043C20.5752 42.7026 20.9041 42.5861 21.2684 42.4644C21.6313 42.3433 22.0256 42.2467 22.3889 42.141C23.174 41.9137 23.8163 41.6893 24.5439 41.4084C25.2392 41.1395 25.4514 41.0095 26.0416 40.7414L27.4715 40.0076C28.082 39.7029 28.8743 39.379 29.5217 39.1708C30.0215 39.0101 30.1414 39.0297 30.5932 38.7992C30.4537 38.7619 30.3022 38.6274 30.1959 38.5481C29.839 38.2812 29.4454 38.014 29.2773 37.5208C28.9711 36.6218 28.8424 36.7646 27.5198 36.7533C26.7767 36.7467 26.1528 35.8666 25.6852 35.4152C25.3486 35.09 24.9997 35.1379 24.3733 35.1379C23.8433 35.1379 23.313 35.1379 22.7825 35.1379C22.2165 35.1379 21.7744 35.1021 21.2273 35.1021C20.7042 35.1021 20.1544 35.1185 19.6353 35.1033C19.1602 35.0893 18.8543 34.93 18.4935 35.4751C18.2824 35.7931 18.0803 36.1215 17.854 36.4203L17.1991 37.3488C16.6874 38.0841 16.0648 38.8545 15.5137 39.6245C15.0282 40.3035 14.6941 40.8616 14.2552 41.5337C14.1554 41.6866 14.0393 41.8739 13.9588 42.0289C13.7606 42.4096 13.4617 42.8938 13.2673 43.3167C13.1756 43.5153 12.926 43.9952 12.9101 44.1825Z" fill="#1E75BB"/>
</svg>
